<svg xmlns="http://www.w3.org/2000/svg" width="145.825" height="26.593" viewBox="0 0 145.825 26.593">
  <g id="Logo_Blue" data-name="Logo Blue" transform="translate(-83.034 -23.732)">
    <g id="Group_5289" data-name="Group 5289" transform="translate(83.034 23.732)">
      <g id="Group_5285" data-name="Group 5285" transform="translate(0 0)">
        <path id="Path_4627" data-name="Path 4627" d="M83.034,23.732V48.864l3.5,1.462V27.992l12.695,1.284v9.552L93.265,40.5v2.718l9.124-2.644-.068-14.86Z" transform="translate(-83.034 -23.732)" fill="#ffffff"/>
        <path id="Path_4628" data-name="Path 4628" d="M128.582,52.024l-12.526,3.6V40.4l-3.365-.332v20.42l18.342-5.237V36.38l-2.524-.259Z" transform="translate(-107.506 -33.956)" fill="#ff7800"/>
      </g>
      <g id="Group_5288" data-name="Group 5288" transform="translate(144.536 12.805)">
        <g id="Group_5287" data-name="Group 5287">
          <g id="Group_5286" data-name="Group 5286">
            <path id="Path_4629" data-name="Path 4629" d="M909.841,96.985" transform="translate(-909.841 -96.985)" fill="#002038" stroke="#00973d" stroke-miterlimit="10" stroke-width="0.5"/>
          </g>
        </g>
      </g>
      <path id="Path_4630" data-name="Path 4630" d="M503.71,72.7l-.02,1.358-.2-.174a5.5,5.5,0,0,0-3.681-1.322h0a5.7,5.7,0,0,0-4.091,1.645,5.771,5.771,0,0,0-1.683,4.091,5.83,5.83,0,0,0,1.682,4.124,5.753,5.753,0,0,0,3.461,1.675,5.888,5.888,0,0,0,.632.035,5.666,5.666,0,0,0,.6-.035,5.449,5.449,0,0,0,3.076-1.351l.2-.175.021,1.562h2.155V72.7Zm-1.183,8.2a3.635,3.635,0,0,1-2.6,1.082,3.694,3.694,0,0,1-2.624-1.085,3.657,3.657,0,0,1-1.085-2.606,3.6,3.6,0,0,1,1.084-2.57,3.709,3.709,0,0,1,2.626-1.081,3.665,3.665,0,0,1,2.6,6.259Z" transform="translate(-422.19 -64.024)" fill="#ffffff"/>
      <path id="Path_4631" data-name="Path 4631" d="M579.639,74.664a2.115,2.115,0,0,1,1.364.6c.261-.46.794-1.385.939-1.637a2.4,2.4,0,0,0-1.924-1.005,2.8,2.8,0,0,0-1.718.479l-.18.127-.019-.479H576V84.182h2.183s0-6.563,0-6.671c-.008-1.156-.016-2.346.858-2.722A1.5,1.5,0,0,1,579.639,74.664Z" transform="translate(-489.824 -64.077)" fill="#ffffff"/>
      <path id="Path_4632" data-name="Path 4632" d="M428,73h-2.183v6.407a5.449,5.449,0,0,0,1.205,3.712A4,4,0,0,0,429.6,84.4a5.113,5.113,0,0,0,.578.035,5.977,5.977,0,0,0,.63-.035,5.125,5.125,0,0,0,2.722-1.114l.191-.153.022,1.3h2.133V73H433.7v3.538c0,2.958-.235,3.829-.7,4.48a2.933,2.933,0,0,1-2.56,1.269,2.173,2.173,0,0,1-1.722-.69A3.668,3.668,0,0,1,428,79.114Z" transform="translate(-365.891 -64.391)" fill="#ffffff"/>
      <path id="Path_4633" data-name="Path 4633" d="M659.192,104.62" transform="translate(-558.473 -90.48)" fill="#none" stroke="#ed4b17" stroke-miterlimit="10" stroke-width="1"/>
      <path id="Path_4634" data-name="Path 4634" d="M622.022,80.28a3.29,3.29,0,0,1-3.05,1.733,3.637,3.637,0,0,1-2.561-.94,3.175,3.175,0,0,1-.991-2.066v-.12s1.809,0,9.224,0a5.34,5.34,0,0,0,.032-.558,5.776,5.776,0,1,0-.579,2.51Zm-6.39-3.661a3.353,3.353,0,0,1,3.182-2.067,3.31,3.31,0,0,1,2.438.993,3.461,3.461,0,0,1,.7,1.072l.07.166h-6.458Z" transform="translate(-520.474 -64.025)" fill="#ffffff"/>
    </g>
    <path id="Path_4635" data-name="Path 4635" d="M353.516,82.725v5.26h2.2V72.751h-2.155l-.02,1.435-.2-.176a5.5,5.5,0,0,0-3.681-1.387,5.708,5.708,0,0,0-4.093,1.71,5.83,5.83,0,0,0-1.682,4.124,5.772,5.772,0,0,0,5.774,5.794,5.668,5.668,0,0,0,1.122-.113,5.483,5.483,0,0,0,2.528-1.24Zm-3.73-.616a3.71,3.71,0,0,1-2.626-1.081,3.6,3.6,0,0,1-1.084-2.57,3.69,3.69,0,1,1,7.381,0,3.676,3.676,0,0,1-3.671,3.651Z" transform="translate(-215.258 -40.345)" fill="#ffffff"/>
    <path id="Path_4636" data-name="Path 4636" d="M855.6,72.222a5.51,5.51,0,0,0-3.7,1.405l-.194.175-.031-1.382h-2.11V87.653h2.183V82.3l.2.176A5.444,5.444,0,0,0,855,83.816a5.657,5.657,0,0,0,.6.035,5.846,5.846,0,0,0,.632-.035,5.815,5.815,0,0,0-.632-11.593Zm2.514,8.4a3.677,3.677,0,0,1-6.284-2.607,3.663,3.663,0,0,1,3.671-3.651,3.681,3.681,0,0,1,2.615,1.08,3.611,3.611,0,0,1,1.076,2.571A3.669,3.669,0,0,1,858.113,80.624Z" transform="translate(-632.534 -40.013)" fill="#ff7800"/>
    <path id="Path_4637" data-name="Path 4637" d="M778.526,51.066v8.968a4.485,4.485,0,0,1-1.04,3.249,4.193,4.193,0,0,1-5.28,0,4.476,4.476,0,0,1-1.042-3.249V51.066h-2.183v8.968a6.52,6.52,0,0,0,1.634,4.748,5.45,5.45,0,0,0,3.524,1.547c.256.023.49.034.714.034s.457-.011.713-.034a5.426,5.426,0,0,0,3.511-1.547,6.531,6.531,0,0,0,1.631-4.747V51.066Z" transform="translate(-566.036 -22.555)" fill="#ff7800"/>
    <path id="Path_4638" data-name="Path 4638" d="M696.87,51.066v5.227l-.2-.174a5.53,5.53,0,0,0-3.65-1.354,5.783,5.783,0,0,0-5.775,5.795,5.831,5.831,0,0,0,1.682,4.124,5.751,5.751,0,0,0,3.461,1.675,5.835,5.835,0,0,0,.631.035,5.668,5.668,0,0,0,.6-.035,5.449,5.449,0,0,0,3.077-1.351l.2-.175.021,1.562h2.155V51.066Zm-1.135,12.1a3.635,3.635,0,0,1-2.6,1.082,3.694,3.694,0,0,1-2.624-1.085,3.656,3.656,0,0,1-1.085-2.606,3.6,3.6,0,0,1,1.084-2.57,3.709,3.709,0,0,1,2.626-1.081,3.665,3.665,0,0,1,2.6,6.259Z" transform="translate(-498.589 -22.555)" fill="#ffffff"/>
    <g id="Group_5290" data-name="Group 5290" transform="translate(116.853 28.243)">
      <path id="Path_4639" data-name="Path 4639" d="M277.909,63.859a4.078,4.078,0,0,1-1.414-3.4l.022-.457h2.189a3.109,3.109,0,0,0,.813,2.349,2.938,2.938,0,0,0,2.023.675,3.271,3.271,0,0,0,2.121-.6,2.034,2.034,0,0,0,.729-1.664,1.916,1.916,0,0,0-.424-1.283,3.022,3.022,0,0,0-1.066-.794,15.6,15.6,0,0,0-1.751-.642,17.082,17.082,0,0,1-2.262-.892,3.987,3.987,0,0,1-1.479-1.294A3.809,3.809,0,0,1,276.8,53.6a3.582,3.582,0,0,1,1.36-3.024,5.5,5.5,0,0,1,3.448-1.044,5.286,5.286,0,0,1,3.416,1.066,3.858,3.858,0,0,1,1.327,3.2v.261h-2.186A2.435,2.435,0,0,0,283.4,52.1a2.571,2.571,0,0,0-1.773-.609,3.1,3.1,0,0,0-1.849.5,1.661,1.661,0,0,0-.7,1.436,1.692,1.692,0,0,0,.413,1.164,3.007,3.007,0,0,0,1.044.751,15.1,15.1,0,0,0,1.7.609,17.411,17.411,0,0,1,2.3.892,4.184,4.184,0,0,1,1.512,1.283,3.628,3.628,0,0,1,.631,2.219A4.253,4.253,0,0,1,285.3,63.87a5.828,5.828,0,0,1-3.753,1.11A5.671,5.671,0,0,1,277.909,63.859Z" transform="translate(-276.495 -49.533)" fill="#ffffff"/>
    </g>
  </g>
</svg>